<svg width="93" height="121" viewBox="0 0 93 121" fill="none" xmlns="http://www.w3.org/2000/svg">
<g clip-path="url(#clip0_3401_6358)">
<path d="M48.4603 0C48.8111 0.0812762 49.171 0.116067 49.5308 0.103483C53.5087 0.383142 57.431 1.19953 61.1918 2.53064C61.6158 2.6788 61.6111 2.69056 61.2996 3.02453C61.2255 3.10358 61.1278 3.15623 61.0213 3.17448C60.9148 3.19273 60.8052 3.17559 60.7093 3.12566C59.6364 2.76818 58.5565 2.4201 57.4625 2.14492C53.2295 1.02591 48.8495 0.571316 44.478 0.797291C37.8557 1.14302 31.5474 2.71643 25.7543 6.00203C14.3838 12.465 6.98613 21.9855 3.95961 34.8268C3.04319 38.7026 2.6905 42.6913 2.91251 46.6686C3.48877 57.1251 7.22975 66.2739 14.2221 74.0611C14.2971 74.1457 14.3744 74.228 14.4564 74.3127C14.6649 74.5479 14.6485 74.6961 14.4095 74.9054C14.3813 74.9401 14.3451 74.9674 14.304 74.9851C14.263 75.0029 14.2184 75.0104 14.1738 75.0072C14.1293 75.004 14.0862 74.99 14.0481 74.9666C14.01 74.9432 13.9781 74.9109 13.9551 74.8725C7.90605 68.3124 3.95653 60.0811 2.61735 51.243C2.12256 48.054 1.99757 44.8182 2.24489 41.6003C2.80944 34.3094 4.76075 27.4183 8.70319 21.2188C14.5899 11.9594 22.6318 5.40935 33.1262 2.06731C36.3044 1.06203 39.5863 0.423684 42.9085 0.164632C43.4028 0.127002 43.8713 0.0987794 44.3632 0.0611492C44.4194 0.0611492 44.4991 0.0987794 44.5295 0.00470378L48.4603 0Z" fill="#FA4C10"/>
<path d="M90.8761 46.1159C90.7947 46.4681 90.7609 46.8296 90.7754 47.1908C90.1101 57.1063 86.7064 65.9118 80.2341 73.4778C76.2073 78.1816 71.4684 81.9823 65.8909 84.687C61.911 86.6133 57.67 87.9399 53.3046 88.624C50.1074 89.1212 46.8655 89.2647 43.637 89.0521C41.0135 88.8771 38.4094 88.479 35.8529 87.862C35.6421 87.8126 35.3844 87.7891 35.4289 87.4528C35.4734 87.1165 35.5812 87.0271 35.9115 87.1094C39.8483 88.0974 43.9035 88.5272 47.959 88.3865C54.1947 88.1748 60.1541 86.766 65.7199 83.9179C77.345 77.9896 84.9691 68.716 88.5922 56.0974C89.3775 53.2577 89.8449 50.339 89.986 47.3954C90.0914 45.5727 90.1546 43.7476 90.089 41.9249C89.9217 37.5885 89.0407 33.3098 87.4818 29.2623C85.4358 23.9548 82.4164 19.0797 78.5803 14.8899C78.5498 14.8546 78.517 14.8193 78.4842 14.7864C78.2031 14.5159 78.1914 14.4336 78.4022 14.2172C78.6131 14.0009 78.7583 13.982 79.0254 14.2831C85.0706 20.8266 89.0188 29.0424 90.3584 37.8655C90.6141 39.4724 90.7706 41.0936 90.8269 42.7198C90.8269 42.7786 90.8012 42.8539 90.8785 42.8938L90.8761 46.1159Z" fill="#FA4C10"/>
<path d="M50.2757 49.0746H38.507C38.0877 49.0746 38.0127 48.997 38.0104 48.5807C38.0104 47.7622 38.0104 46.9344 38.0104 46.1253C37.9963 44.0862 37.9331 42.0448 37.9635 40.0104C38.0924 31.4683 40.737 23.8176 46.1154 17.1688C50.2126 12.0091 55.9059 8.36778 62.2952 6.8205C64.4168 6.3066 66.5921 6.04998 68.7745 6.05614C69.2079 6.05614 69.2829 6.13375 69.2735 6.5665C69.1892 10.0928 69.1056 13.6206 69.0229 17.15C69.0229 17.5169 68.9432 17.5992 68.5801 17.6839C64.5604 18.6246 60.8311 20.1957 57.5211 22.7028C55.1929 24.4154 53.2846 26.6387 51.9413 29.2035C50.7988 31.3958 50.2396 33.8472 50.3179 36.3203C50.3296 36.7389 50.4116 36.8236 50.8403 36.8236H61.822H62.1031C62.4263 36.8236 62.5247 36.92 62.5271 37.2469C62.5271 37.9525 62.5271 38.6769 62.5271 39.3918C62.5271 42.3709 62.5271 45.35 62.5271 48.329C62.5271 49.0863 62.5271 49.0863 61.7915 49.0863H50.2757V49.0746Z" fill="#3656B9"/>
<path d="M18.703 77.2126C18.703 75.2401 18.703 73.2653 18.703 71.2881C18.703 70.8977 18.7569 70.8413 19.1294 70.8366C24.578 70.7472 29.0593 68.5717 32.6761 64.5147C35.5363 61.3114 37.2276 57.5578 37.9514 53.3409C38.0358 52.8493 38.0592 52.8258 38.5371 52.8258H49.1814C49.6312 52.8258 49.7202 52.9128 49.6827 53.3174C49.4398 56.5561 48.6732 59.7336 47.4128 62.7249C44.2622 69.9829 39.2492 75.5451 32.299 79.3081C28.6758 81.2787 24.7544 82.6375 20.6918 83.3298C20.2233 83.4122 19.7384 83.5203 19.2559 83.5768C18.7733 83.6332 18.703 83.565 18.703 83.1064C18.6999 81.1339 18.6999 79.1693 18.703 77.2126Z" fill="#3656B9"/>
<path d="M67.151 41.4145C67.1206 38.3312 67.1768 35.2455 67.2166 32.1622C67.2273 31.4415 67.5055 30.7507 67.9969 30.2252C68.4882 29.6997 69.1573 29.3773 69.873 29.3211C70.743 29.2606 71.6167 29.2827 72.4826 29.3869C73.6538 29.5327 74.6963 30.6546 74.811 31.8352C74.8353 32.0697 74.8478 32.3051 74.8485 32.5408C74.8485 32.9524 74.9422 33.07 75.3498 33.07C75.9785 33.0597 76.6065 33.1149 77.2238 33.2346C77.8535 33.3442 78.4241 33.6745 78.8342 34.1667C79.2442 34.6589 79.4671 35.2812 79.4633 35.9228C79.4633 36.8895 79.5663 37.8561 79.4961 38.8227C79.4703 39.2061 79.6366 39.3519 80.0278 39.3213C80.5309 39.2647 81.0397 39.2861 81.5364 39.3848C82.7615 39.66 83.6446 40.7677 83.572 41.939C83.5459 42.5604 83.2955 43.1511 82.8675 43.6007C82.4394 44.0504 81.8631 44.3283 81.2459 44.3826C80.8477 44.4226 80.4424 44.4273 80.0419 44.4343C79.6413 44.4414 79.5031 44.5402 79.4984 44.9682C79.4867 45.8784 79.407 46.7933 79.482 47.7035C79.6038 49.1616 78.2311 50.7374 76.6359 50.641C76.1884 50.6151 75.7387 50.641 75.2889 50.641C74.9492 50.641 74.8649 50.7421 74.8579 51.0855C74.8415 51.8381 74.7431 52.5695 74.291 53.2022C74.0483 53.557 73.725 53.8486 73.3478 54.0531C72.9706 54.2576 72.5504 54.369 72.1218 54.3781C71.4026 54.4228 70.6813 54.4228 69.962 54.3781C68.3223 54.2464 67.3595 53.2163 67.2307 51.57C67.1346 50.3117 67.1745 49.0511 67.1651 47.7928C67.137 45.6644 67.151 43.5406 67.151 41.4145Z" fill="#3656B9"/>
<path d="M33.1402 41.7649C33.1168 44.5401 33.1402 47.313 33.1191 50.0882C33.1247 50.6808 33.0926 51.2731 33.0231 51.8616C32.8404 53.2186 31.9947 54.1382 30.6337 54.3193C29.6859 54.4495 28.7243 54.4431 27.7782 54.3005C27.1745 54.209 26.6194 53.9152 26.203 53.4669C25.7867 53.0186 25.5336 52.442 25.4849 51.831C25.4591 51.5958 25.4474 51.3606 25.4404 51.1254C25.4404 50.695 25.3748 50.6315 24.9555 50.6292C24.487 50.6292 24.0185 50.6292 23.55 50.6292C22.9417 50.6168 22.3542 50.4041 21.8781 50.0237C21.4019 49.6434 21.0634 49.1166 20.9147 48.5242C20.8621 48.3246 20.8337 48.1192 20.8303 47.9127C20.8303 46.9438 20.8022 45.9748 20.7929 45.0058C20.7929 44.4884 20.7132 44.4108 20.2072 44.4202C19.7367 44.437 19.2656 44.4047 18.8017 44.3238C18.1877 44.2134 17.6357 43.8796 17.2515 43.3862C16.8673 42.8929 16.6778 42.2746 16.7192 41.6496C16.7817 41.0272 17.0641 40.4478 17.5152 40.0164C17.9664 39.585 18.5566 39.33 19.1789 39.2978C19.5326 39.2813 19.8816 39.2978 20.2447 39.2978C20.6968 39.3095 20.7858 39.2296 20.7858 38.7662C20.7858 38.1547 20.7671 37.5432 20.7858 36.9318C20.7701 36.3958 20.8109 35.8597 20.9076 35.3325C21.0411 34.7255 21.3722 34.1806 21.8486 33.7836C22.325 33.3867 22.9195 33.1604 23.5383 33.1405C24.0419 33.1076 24.5456 33.077 25.0515 33.0394C25.4053 33.0135 25.4521 32.9735 25.4381 32.6066C25.402 32.1984 25.4472 31.7871 25.5711 31.3967C25.695 31.0062 25.895 30.6444 26.1595 30.3323C26.3956 30.0335 26.6938 29.7898 27.0332 29.6184C27.3726 29.447 27.7452 29.352 28.1249 29.3398C28.9659 29.3187 29.8092 29.2411 30.6478 29.354C31.3136 29.4401 31.926 29.7647 32.3724 30.2682C32.8187 30.7716 33.0689 31.42 33.077 32.0939C33.1098 34.3235 33.1285 36.5507 33.1473 38.7803C33.1473 39.7728 33.1402 40.77 33.1402 41.7649Z" fill="#3656B9"/>
<path d="M46.5909 4.51559C47.3147 4.49442 48.2119 4.55792 49.1091 4.5885C49.2637 4.5885 49.3667 4.63318 49.3574 4.81193C49.348 4.99067 49.3175 5.11532 49.1231 5.13649C49.0577 5.14237 48.9918 5.14237 48.9263 5.13649C46.3364 4.98762 43.7381 5.0995 41.1703 5.47046C36.8999 6.03726 32.7982 7.19674 28.9611 9.16763C20.3126 13.6104 13.9691 20.2686 10.1109 29.2551C10.0525 29.3825 10.0078 29.5157 9.97743 29.6526C9.94229 29.8219 9.86264 29.909 9.68695 29.8596C9.51127 29.8102 9.36837 29.7185 9.43396 29.4997C9.47105 29.3939 9.51407 29.2902 9.5628 29.1893C11.9886 23.3557 15.7523 18.1798 20.5476 14.083C25.3428 9.98627 31.0339 7.08447 37.1576 5.61392C40.2454 4.86144 43.4135 4.49257 46.5909 4.51559Z" fill="#FA4C10"/>
<path d="M46.5369 84.5693C45.2649 84.5693 43.9929 84.5058 42.7256 84.3882C42.5195 84.367 42.4117 84.287 42.4281 84.0707C42.4445 83.8543 42.6038 83.819 42.7912 83.8355C45.755 84.1298 48.7431 84.0698 51.6928 83.6567C57.9309 82.8524 63.6747 80.7239 68.8446 77.1067C73.2204 74.0492 76.9404 70.3215 79.817 65.7847C79.8811 65.6919 79.9383 65.5944 79.988 65.4931C80.0863 65.2861 80.2339 65.2579 80.4283 65.3449C80.6228 65.4319 80.6368 65.526 80.5267 65.6953C78.7359 68.544 76.6022 71.1602 74.1738 73.4848C66.721 80.608 56.8221 84.5758 46.5322 84.5645L46.5369 84.5693Z" fill="#FA4C10"/>
<path d="M10.4968 105.191H5.17695L3.77144 112.583H0L3.1577 95.8844H13.4882L13.1555 97.606H6.59651L5.48616 103.486H10.8294L10.4968 105.191Z" fill="#3656BA"/>
<path d="M18.2855 101.449L16.9315 108.66C16.873 108.91 16.8415 109.167 16.8378 109.424C16.8378 110.092 17.051 110.835 17.8123 110.835C18.8805 110.835 19.9487 109.309 21.0403 106.426L22.3943 107.211C21.1832 110.504 19.4263 112.856 16.3623 112.856C14.2728 112.856 13.2515 111.616 13.2515 109.826C13.2973 108.791 13.4321 107.762 13.6544 106.75L14.6429 101.449H18.2855ZM17.4071 96.2983C17.6115 96.2897 17.8155 96.3237 18.0061 96.3981C18.1968 96.4725 18.3701 96.5857 18.5151 96.7306C18.6601 96.8756 18.7737 97.049 18.8486 97.2401C18.9236 97.4313 18.9584 97.6359 18.9508 97.8411C18.9415 98.4284 18.7019 98.9882 18.2839 99.3991C17.8659 99.8099 17.3033 100.039 16.7184 100.035C16.5113 100.048 16.3038 100.017 16.1095 99.944C15.9151 99.871 15.7383 99.7576 15.5905 99.6114C15.4427 99.4653 15.3272 99.2894 15.2515 99.0955C15.1758 98.9015 15.1416 98.6937 15.1512 98.4856C15.1555 98.193 15.2173 97.9041 15.3332 97.6356C15.449 97.3671 15.6165 97.1243 15.8262 96.921C16.0358 96.7177 16.2834 96.5581 16.5547 96.4512C16.826 96.3443 17.1157 96.2924 17.4071 96.2983Z" fill="#3656BA"/>
<path d="M21.9916 99.2311H25.6248L25.1962 101.449H27.9509L27.6441 103.189H24.8659L23.8445 108.66C23.7973 108.888 23.7729 109.121 23.7719 109.354C23.7719 110.259 24.2006 110.831 24.983 110.831C26.3604 110.831 27.5597 109.21 28.5928 106.421L29.9468 107.206C29.5953 108.337 29.0577 109.401 28.3562 110.353C26.9507 112.117 25.5288 112.858 23.5587 112.858C21.2795 112.858 20.1387 111.447 20.1387 109.711C20.1819 108.691 20.3167 107.677 20.5416 106.682L21.2443 103.201H20.1738L20.5064 101.461H21.5512L21.9916 99.2311Z" fill="#3656BA"/>
<path d="M43.6267 107.195C43.1056 108.481 42.2921 109.627 41.2514 110.541C39.8014 111.901 37.6416 112.856 34.6924 112.856C30.2276 112.856 27.8054 110.09 27.8054 106.465C27.8054 100.351 31.7221 95.6162 36.8053 95.6162C39.8693 95.6162 41.2702 97.1426 41.2702 98.716C41.2702 100.002 40.4386 100.48 39.4172 100.48C39.0699 100.482 38.7246 100.426 38.3959 100.313C38.5548 99.902 38.6435 99.467 38.6583 99.0265C38.6583 97.9046 38.0164 97.3331 36.8288 97.3331C34.2871 97.3331 31.6284 101.218 31.6284 106.369C31.6284 109.278 33.1253 111.139 35.8449 111.139C38.6559 111.139 41.1882 109.111 42.2587 106.418L43.6267 107.195Z" fill="#3656BA"/>
<path d="M46.4051 101.449L45.0512 108.66C44.9917 108.91 44.9595 109.167 44.9551 109.424C44.9551 110.092 45.1706 110.835 45.9296 110.835C46.9978 110.835 48.066 109.309 49.1599 106.425L50.5139 107.211C49.3028 110.504 47.5436 112.856 44.4819 112.856C42.3901 112.856 41.3711 111.616 41.3711 109.826C41.4157 108.791 41.5505 107.762 41.774 106.75L42.7719 101.458L46.4051 101.449ZM45.5267 96.2982C45.7316 96.2899 45.9361 96.3243 46.1271 96.3993C46.3181 96.4742 46.4916 96.5881 46.6366 96.7337C46.7817 96.8793 46.8951 97.0535 46.9697 97.2453C47.0444 97.4371 47.0787 97.6423 47.0704 97.8481C47.0612 98.4353 46.8215 98.9952 46.4035 99.406C45.9855 99.8169 45.423 100.046 44.838 100.042C44.6308 100.056 44.4232 100.025 44.2287 99.9517C44.0342 99.8788 43.8572 99.7655 43.7093 99.6192C43.5614 99.473 43.4459 99.297 43.3703 99.1028C43.2948 98.9087 43.2609 98.7007 43.2709 98.4925C43.2739 98.1993 43.3348 97.9095 43.4501 97.64C43.5655 97.3706 43.7329 97.1267 43.9427 96.9227C44.1525 96.7186 44.4005 96.5583 44.6724 96.4511C44.9443 96.344 45.2347 96.292 45.5267 96.2982Z" fill="#3656BA"/>
<path d="M51.8888 101.997C51.5326 103.753 51.0806 105.488 50.5349 107.195L50.5114 107.265L49.1575 106.48L49.1809 106.409C49.7172 104.785 50.1145 103.117 50.3685 101.425C49.9 101.235 49.3941 100.875 49.3941 100.16C49.4023 99.724 49.577 99.3078 49.8822 98.9974C50.1874 98.6871 50.5997 98.5063 51.0338 98.4925C51.8396 98.4925 52.2918 99.017 52.2918 99.8025C52.2868 99.986 52.2712 100.169 52.2449 100.351L55.1894 101.639C56.6605 102.284 57.2087 103.189 57.2087 104.285C57.2087 106.193 55.665 107.625 55.665 109.556C55.6584 109.718 55.6841 109.879 55.7406 110.031C55.797 110.182 55.8831 110.321 55.9938 110.439C56.1045 110.556 56.2374 110.65 56.3849 110.716C56.5324 110.781 56.6914 110.816 56.8526 110.819C58.2042 110.819 59.249 109.579 60.4367 106.409L61.7906 107.195C60.9356 109.483 59.4879 112.839 55.5455 112.839C53.2662 112.839 52.0786 111.55 52.0786 109.643C52.0786 107.211 53.8355 105.137 53.8355 103.61C53.8355 102.968 53.5731 102.681 53.0507 102.467L51.8888 101.997Z" fill="#3656BA"/>
<path d="M67.2088 105.882C67.3685 105.421 67.4638 104.94 67.4923 104.452C67.4923 103.403 67.0425 102.952 66.2578 102.952C64.7609 102.952 63.1235 104.977 63.1235 107.766C63.1235 109.77 64.1214 111.153 66.3046 111.153C69.2749 111.153 71.5776 108.958 72.5989 106.409L73.9529 107.195C73.4844 108.387 72.8355 109.389 71.5542 110.652C70.3665 111.828 68.3965 112.846 65.2599 112.846C61.6758 112.846 59.5371 111.056 59.5371 107.982C59.5371 104.118 62.3879 101.185 66.1875 101.185C68.5136 101.185 70.1042 102.568 70.1042 104.262C70.1042 105.287 69.5584 106.049 68.2536 106.049C67.8984 106.053 67.5452 105.997 67.2088 105.882Z" fill="#3656BA"/>
<path d="M78.0148 94.7837L75.3771 108.66C75.3147 108.958 75.2833 109.263 75.2834 109.568C75.2834 110.377 75.5668 110.831 76.2555 110.831C77.3237 110.831 78.3943 109.304 79.4859 106.421L80.8398 107.206C79.5327 110.734 77.5861 112.851 74.8079 112.851C72.6692 112.851 71.697 111.539 71.697 109.678C71.697 108.973 71.8868 107.891 72.0999 106.745L74.3558 94.7837H78.0148Z" fill="#3656BA"/>
<path d="M85.2582 101.185C87.7975 101.185 89.1514 102.521 89.1514 104.262C89.1514 106.503 87.1322 108.124 83.6184 108.124C83.1499 108.124 82.7634 108.1 82.1942 108.077C82.2879 110.057 83.4755 111.153 85.5182 111.153C88.1793 111.153 90.6015 108.911 91.6462 106.409L93.0002 107.195C92.096 109.483 89.627 112.839 84.45 112.839C80.8168 112.839 78.5938 111.075 78.5938 107.999C78.5938 104.024 81.5289 101.185 85.2582 101.185ZM82.2879 106.543H83.0024C85.1387 106.543 86.3264 105.28 86.3264 103.968C86.3264 103.302 85.9703 102.895 85.3285 102.895C84.0471 102.902 82.6931 104.309 82.2879 106.543Z" fill="#3656BA"/>
<path d="M5.77323 117.135L5.07048 120.479C5.06357 120.519 5.04184 120.555 5.00966 120.579C4.97749 120.604 4.93727 120.615 4.89713 120.611H4.39115C4.35084 120.611 4.31171 120.597 4.28105 120.571C4.2653 120.56 4.25199 120.545 4.24192 120.529C4.23186 120.512 4.22525 120.494 4.22249 120.475L3.68137 117.864C3.68137 117.817 3.65795 117.751 3.64155 117.664L3.59938 117.467H3.49397L3.41901 117.864L2.88492 120.475C2.87653 120.514 2.85398 120.548 2.82167 120.571C2.78881 120.597 2.74848 120.611 2.70689 120.611H2.20325C2.16256 120.612 2.12281 120.599 2.09081 120.573C2.07488 120.563 2.06128 120.549 2.05081 120.533C2.04035 120.516 2.03324 120.498 2.0299 120.479L1.32715 117.135H1.79565L2.33911 119.844C2.33911 119.896 2.35083 119.974 2.37425 120.079C2.39065 120.183 2.40002 120.249 2.4047 120.277H2.51949C2.54525 120.122 2.57336 119.978 2.60147 119.847L3.13791 117.283C3.14262 117.241 3.16292 117.203 3.19468 117.176C3.22645 117.149 3.26729 117.135 3.30891 117.137H3.79147C3.83298 117.135 3.87386 117.148 3.90537 117.176C3.93689 117.203 3.95654 117.241 3.96013 117.283L4.49891 119.847C4.5317 120.003 4.55513 120.147 4.56918 120.277H4.69334C4.72613 120.061 4.74956 119.92 4.76127 119.851L5.30707 117.135H5.77323Z" fill="#FB490C"/>
<path d="M9.8397 120.62H9.39931V118.953H7.80172V120.62H7.36133V117.135H7.80172V118.56H9.39931V117.135H9.8397V120.62Z" fill="#FB490C"/>
<path d="M12.3463 117.135C13.0303 117.135 13.5176 117.135 13.8338 117.163L13.8127 117.514H12.4236C12.3813 117.509 12.3385 117.514 12.2982 117.527C12.2578 117.54 12.2207 117.562 12.1894 117.591C12.1331 117.663 12.1063 117.754 12.1144 117.845V118.598H13.6089V118.955H12.1214V119.908C12.1214 120.134 12.2221 120.246 12.4236 120.246H13.8127L13.8338 120.587C13.5246 120.606 13.0303 120.618 12.3463 120.618C12.1701 120.627 11.997 120.569 11.8614 120.456C11.8011 120.4 11.7537 120.331 11.7225 120.255C11.6914 120.178 11.6772 120.096 11.681 120.014V117.737C11.6772 117.655 11.6914 117.572 11.7225 117.496C11.7537 117.42 11.8011 117.351 11.8614 117.295C11.9974 117.182 12.1704 117.125 12.3463 117.135Z" fill="#FB490C"/>
<path d="M16.7126 117.1C17.0173 117.071 17.3228 117.146 17.5793 117.314C17.748 117.457 17.83 117.721 17.83 118.102C17.8462 118.326 17.7939 118.55 17.6801 118.744C17.6217 118.819 17.5477 118.881 17.4632 118.926C17.3787 118.97 17.2857 118.995 17.1905 119V119.016C17.3031 119.052 17.4037 119.117 17.481 119.207C17.5584 119.296 17.6095 119.405 17.6285 119.522L17.9635 120.62H17.495L17.1905 119.531C17.1701 119.424 17.1111 119.328 17.0248 119.261C16.9384 119.194 16.8307 119.162 16.722 119.169H15.9536V120.625H15.5203V117.135C15.8271 117.114 16.223 117.1 16.7126 117.1ZM16.7126 117.481C16.3448 117.481 16.0965 117.481 15.9653 117.481V118.781H16.6915C16.8801 118.802 17.0699 118.754 17.2256 118.645C17.2833 118.572 17.3261 118.488 17.3514 118.399C17.3767 118.309 17.3841 118.215 17.3732 118.123C17.384 118.032 17.3766 117.939 17.3512 117.851C17.3259 117.763 17.2832 117.681 17.2256 117.61C17.0684 117.505 16.8792 117.459 16.6915 117.481H16.7126Z" fill="#FB490C"/>
<path d="M20.2544 117.135C20.9361 117.135 21.4257 117.135 21.7396 117.163L21.7185 117.514H20.3294C20.2871 117.51 20.2445 117.514 20.2041 117.528C20.1638 117.541 20.1267 117.563 20.0951 117.591C20.0397 117.664 20.0137 117.754 20.0225 117.845V118.598H21.517V118.955H20.0295V119.908C20.0295 120.143 20.1303 120.246 20.3294 120.246H21.7185L21.7396 120.587C21.4327 120.606 20.9361 120.618 20.2544 120.618C20.0782 120.627 19.9051 120.569 19.7695 120.456C19.7088 120.4 19.6612 120.331 19.63 120.255C19.5988 120.179 19.5848 120.096 19.5891 120.014V117.737C19.5848 117.654 19.5988 117.572 19.63 117.496C19.6612 117.419 19.7088 117.351 19.7695 117.295C19.9055 117.182 20.0785 117.125 20.2544 117.135Z" fill="#FB490C"/>
<path d="M26.2959 117.135C26.9542 117.135 27.4321 117.135 27.7319 117.168L27.7061 117.511H26.406C26.3138 117.504 26.2224 117.532 26.1507 117.591C26.121 117.626 26.0987 117.666 26.085 117.71C26.0713 117.754 26.0666 117.8 26.0711 117.845V118.647H27.5164V119.016H26.0617V120.625H25.6213V117.765C25.6148 117.678 25.6274 117.591 25.6581 117.51C25.6889 117.429 25.7371 117.355 25.7993 117.295C25.9383 117.18 26.1161 117.122 26.2959 117.135Z" fill="#FB490C"/>
<path d="M29.7697 120.62H29.3411V117.135H29.7815L29.7697 120.62Z" fill="#FB490C"/>
<path d="M33.9956 117.537H32.8782V120.62H32.4378V117.537H31.3228V117.135H33.9956V117.537Z" fill="#FB490C"/>
<path d="M38.2193 117.135V120.428C38.2228 120.451 38.2207 120.476 38.2133 120.498C38.2058 120.521 38.1932 120.542 38.1764 120.559C38.1596 120.576 38.1391 120.589 38.1164 120.597C38.0938 120.605 38.0697 120.607 38.046 120.604H37.6173C37.5744 120.601 37.5331 120.586 37.498 120.561C37.4629 120.537 37.4353 120.502 37.4182 120.463L36.2469 118C36.1713 117.852 36.1048 117.699 36.0478 117.542H35.9681C35.9834 117.694 35.9905 117.847 35.9892 118V120.604H35.5488V117.311C35.5453 117.288 35.5473 117.263 35.5547 117.241C35.5622 117.218 35.5748 117.197 35.5917 117.18C35.6086 117.163 35.6292 117.151 35.6518 117.143C35.6745 117.136 35.6986 117.134 35.7222 117.137H36.1415C36.1841 117.139 36.2252 117.153 36.2598 117.179C36.2944 117.204 36.3208 117.238 36.3359 117.278L37.4674 119.682C37.5798 119.917 37.6594 120.084 37.7016 120.183H37.7859C37.7859 120.004 37.7742 119.828 37.7742 119.656V117.135H38.2193Z" fill="#FB490C"/>
<path d="M40.7256 117.135C41.4097 117.135 41.9055 117.144 42.2131 117.163L42.1921 117.511H40.8029C40.7605 117.507 40.7176 117.512 40.6772 117.526C40.6368 117.54 40.5998 117.562 40.5687 117.591C40.5124 117.663 40.4856 117.754 40.4937 117.845V118.598H41.9906V118.953H40.4937V119.905C40.4937 120.141 40.5945 120.246 40.7959 120.246H42.185L42.2061 120.587C41.8938 120.606 41.3979 120.616 40.7186 120.616C40.5427 120.625 40.3697 120.568 40.2337 120.456C40.1734 120.4 40.126 120.331 40.0949 120.255C40.0637 120.178 40.0495 120.096 40.0533 120.014V117.737C40.0495 117.654 40.0637 117.572 40.0949 117.496C40.126 117.419 40.1734 117.351 40.2337 117.295C40.3715 117.181 40.5474 117.123 40.7256 117.135Z" fill="#FB490C"/>
<path d="M44.8602 117.085C45.2055 117.083 45.5502 117.117 45.8885 117.187L45.8604 117.506C45.4692 117.49 45.1436 117.481 44.8813 117.481C44.7337 117.481 44.6259 117.481 44.5557 117.481C44.4836 117.487 44.4136 117.508 44.3495 117.542C44.3175 117.558 44.2891 117.58 44.2661 117.608C44.2432 117.635 44.2261 117.667 44.216 117.702C44.1904 117.799 44.1793 117.9 44.1832 118C44.1692 118.067 44.1699 118.137 44.1853 118.203C44.2006 118.27 44.2303 118.332 44.2723 118.386C44.3142 118.44 44.3674 118.485 44.428 118.516C44.4887 118.547 44.5555 118.565 44.6236 118.567L45.3263 118.746C45.5419 118.783 45.7358 118.899 45.8698 119.073C45.9843 119.27 46.0381 119.497 46.0244 119.724C46.0291 119.888 46.0078 120.052 45.9612 120.209C45.9235 120.326 45.8476 120.427 45.7457 120.496C45.6376 120.564 45.5175 120.61 45.3919 120.632C45.2175 120.659 45.0412 120.67 44.8649 120.667C44.5051 120.669 44.146 120.637 43.792 120.573L43.8225 120.246C44.4104 120.263 44.7595 120.272 44.8813 120.272C45.0728 120.285 45.2644 120.247 45.4364 120.162C45.5301 120.093 45.577 119.942 45.577 119.71C45.5905 119.57 45.5558 119.429 45.4786 119.31C45.3853 119.22 45.267 119.159 45.1389 119.136L44.4362 118.958C44.2264 118.919 44.0389 118.802 43.9115 118.631C43.7964 118.437 43.7417 118.214 43.7545 117.989C43.7513 117.852 43.7663 117.715 43.799 117.582C43.8214 117.485 43.8637 117.395 43.9232 117.316C43.9846 117.242 44.066 117.189 44.1574 117.161C44.258 117.125 44.3627 117.101 44.469 117.09C44.5674 117.093 44.6939 117.085 44.8602 117.085Z" fill="#FB490C"/>
<path d="M51.3396 117.107C51.6524 117.078 51.9665 117.145 52.2415 117.297C52.3351 117.387 52.4066 117.498 52.4505 117.62C52.4944 117.743 52.5094 117.873 52.4944 118.003C52.5093 118.203 52.4609 118.403 52.3562 118.574C52.3022 118.642 52.2339 118.698 52.1562 118.736C52.0784 118.775 51.9932 118.796 51.9065 118.798V118.816C52.0092 118.817 52.1105 118.841 52.2026 118.887C52.2947 118.932 52.3753 118.998 52.4382 119.08C52.5564 119.28 52.6119 119.511 52.5975 119.743C52.6123 119.872 52.5979 120.002 52.5553 120.124C52.5127 120.247 52.443 120.357 52.3516 120.449C52.0938 120.602 51.7947 120.669 51.4965 120.642C50.9343 120.642 50.508 120.627 50.2175 120.604V117.135C50.4775 117.121 50.85 117.107 51.3396 117.107ZM51.3185 117.481H50.6579V118.657H51.3982C51.5829 118.675 51.7684 118.632 51.9276 118.537C51.986 118.474 52.0298 118.4 52.0557 118.319C52.0817 118.237 52.0891 118.151 52.0775 118.066C52.0895 117.981 52.0814 117.894 52.0537 117.812C52.026 117.73 51.9796 117.656 51.9182 117.596C51.7339 117.499 51.5253 117.459 51.3185 117.481ZM50.6486 118.986V120.275C50.7844 120.275 51.0421 120.275 51.4239 120.275C51.6232 120.295 51.8238 120.252 51.9978 120.152C52.0576 120.089 52.1025 120.012 52.1293 119.929C52.156 119.845 52.1639 119.757 52.1524 119.67C52.1644 119.573 52.156 119.474 52.1278 119.38C52.0995 119.286 52.0521 119.199 51.9885 119.125C51.8135 119.007 51.603 118.954 51.3935 118.976L50.6486 118.986Z" fill="#FB490C"/>
<path d="M54.9611 117.135C55.6428 117.135 56.1324 117.135 56.4463 117.163L56.4252 117.511H55.0361C54.9937 117.507 54.9509 117.513 54.9106 117.526C54.8703 117.54 54.8332 117.562 54.8019 117.591C54.7464 117.663 54.7205 117.754 54.7292 117.845V118.598H56.2238V118.953H54.7292V119.905C54.7292 120.141 54.83 120.246 55.0291 120.246H56.4182L56.4393 120.587C56.1324 120.606 55.6358 120.616 54.9541 120.616C54.7782 120.625 54.6052 120.568 54.4692 120.456C54.4085 120.4 54.3609 120.331 54.3297 120.255C54.2985 120.178 54.2846 120.096 54.2888 120.014V117.737C54.2846 117.654 54.2985 117.572 54.3297 117.496C54.3609 117.419 54.4085 117.351 54.4692 117.295C54.607 117.181 54.7829 117.123 54.9611 117.135Z" fill="#FB490C"/>
<path d="M61.2815 117.135V119.903C61.277 119.949 61.2817 119.995 61.2954 120.038C61.3091 120.082 61.3314 120.122 61.3611 120.157C61.4331 120.215 61.5246 120.243 61.6164 120.235H62.865L62.8861 120.58C62.5956 120.602 62.1482 120.613 61.5438 120.613C61.4479 120.622 61.3512 120.611 61.2597 120.581C61.1682 120.55 61.0839 120.501 61.0121 120.437C60.8984 120.307 60.8388 120.139 60.8458 119.967V117.135H61.2815Z" fill="#FB490C"/>
<path d="M64.8723 120.62H64.4319V117.135H64.8723V120.62Z" fill="#FB490C"/>
<path d="M67.4023 117.135C68.0582 117.135 68.5384 117.135 68.8383 117.168L68.8125 117.511H67.5241C67.4319 117.504 67.3404 117.532 67.2688 117.591C67.2393 117.626 67.217 117.666 67.2033 117.709C67.1896 117.752 67.1848 117.798 67.1891 117.843V118.647H68.6321V119.016H67.1891V120.625H66.7487V117.765C66.7422 117.679 66.7548 117.591 66.7856 117.51C66.8163 117.429 66.8645 117.355 66.9268 117.295C67.0603 117.185 67.2296 117.128 67.4023 117.135Z" fill="#FB490C"/>
<path d="M71.0822 117.135C71.7662 117.135 72.2613 117.144 72.5674 117.163L72.5486 117.511H71.1572C71.1147 117.507 71.0718 117.512 71.0314 117.526C70.991 117.539 70.954 117.562 70.9229 117.591C70.8671 117.662 70.8403 117.752 70.848 117.843V118.595H72.3425V118.953H70.848V119.905C70.848 120.141 70.9487 120.246 71.1478 120.246H72.5393L72.558 120.588C72.2457 120.606 71.7506 120.616 71.0729 120.616C70.897 120.625 70.7239 120.568 70.588 120.456C70.5276 120.4 70.4803 120.331 70.4491 120.255C70.4179 120.178 70.4038 120.096 70.4076 120.014V117.737C70.4038 117.655 70.4179 117.572 70.4491 117.496C70.4803 117.42 70.5276 117.351 70.588 117.295C70.7263 117.18 70.9032 117.123 71.0822 117.135Z" fill="#FB490C"/>
<path d="M75.2145 117.086C75.5607 117.082 75.9063 117.116 76.2452 117.187L76.2148 117.507C75.8259 117.49 75.5003 117.481 75.2379 117.481C75.0904 117.481 74.9803 117.481 74.91 117.481C74.8387 117.487 74.7694 117.508 74.7062 117.542C74.6732 117.556 74.644 117.578 74.6208 117.606C74.5976 117.634 74.5812 117.667 74.5727 117.702C74.5459 117.799 74.5341 117.9 74.5375 118C74.5246 118.139 74.5593 118.277 74.6359 118.393C74.7277 118.487 74.8479 118.549 74.9779 118.567L75.6807 118.746C75.896 118.783 76.0898 118.9 76.2241 119.073C76.3383 119.269 76.3921 119.495 76.3787 119.722C76.3836 119.887 76.3623 120.051 76.3155 120.209C76.2778 120.326 76.2019 120.427 76.1 120.496C75.9921 120.564 75.8719 120.609 75.7463 120.63C75.5713 120.658 75.3941 120.671 75.2169 120.667C74.8579 120.669 74.4996 120.637 74.1463 120.573L74.1768 120.246C74.7624 120.263 75.1138 120.272 75.2356 120.272C75.4271 120.285 75.6187 120.247 75.7908 120.162C75.8821 120.094 75.929 119.943 75.929 119.71C75.9419 119.57 75.9081 119.429 75.8329 119.31C75.7396 119.22 75.6213 119.159 75.4933 119.136L74.7858 118.969C74.5769 118.929 74.3901 118.812 74.2611 118.642C74.1477 118.448 74.0932 118.225 74.1042 118C74.1021 117.863 74.117 117.727 74.1487 117.594C74.1731 117.497 74.216 117.407 74.2752 117.328C74.3363 117.254 74.4178 117.2 74.5094 117.173C74.6101 117.137 74.7147 117.113 74.821 117.102C74.9518 117.09 75.0831 117.085 75.2145 117.086Z" fill="#FB490C"/>
<path d="M80.4218 117.537H79.3021V120.62H78.8617V117.537H77.749V117.135H80.4218V117.537Z" fill="#FB490C"/>
<path d="M83.1863 119.4V120.62H82.7506V119.395L81.6028 117.144H82.0713L82.7998 118.612C82.8587 118.739 82.9111 118.87 82.9568 119.002H82.9849C83.0284 118.87 83.0808 118.741 83.1418 118.617L83.8656 117.144H84.3342L83.1863 119.4Z" fill="#FB490C"/>
<path d="M86.468 117.135C87.152 117.135 87.6479 117.144 87.9555 117.163L87.9344 117.511H86.5453C86.5029 117.507 86.4601 117.512 86.4197 117.526C86.3794 117.54 86.3424 117.562 86.3111 117.591C86.256 117.663 86.2301 117.753 86.2385 117.843V118.595H87.733V118.953H86.2385V119.905C86.2385 120.141 86.3368 120.246 86.5383 120.246H87.9274L87.9485 120.587C87.6362 120.606 87.1403 120.616 86.461 120.616C86.2853 120.624 86.1126 120.567 85.9761 120.456C85.9162 120.399 85.8693 120.331 85.8385 120.254C85.8078 120.178 85.794 120.096 85.7981 120.014V117.737C85.794 117.655 85.8078 117.572 85.8385 117.496C85.8693 117.42 85.9162 117.351 85.9761 117.295C86.1139 117.181 86.2898 117.123 86.468 117.135Z" fill="#FB490C"/>
<path d="M90.0682 117.135V119.903C90.064 119.949 90.0692 119.995 90.0832 120.039C90.0973 120.082 90.1201 120.123 90.1502 120.157C90.2215 120.215 90.3121 120.242 90.4032 120.235H91.6518L91.6729 120.58C91.38 120.602 90.9326 120.613 90.3283 120.613C90.2323 120.622 90.1356 120.611 90.0441 120.581C89.9526 120.55 89.8684 120.501 89.7965 120.437C89.6828 120.307 89.6232 120.139 89.6302 119.967V117.135H90.0682Z" fill="#FB490C"/>
</g>
<defs>
<clipPath id="clip0_3401_6358">
<rect width="93" height="120.198" fill="white"/>
</clipPath>
</defs>
</svg>
